REM DIRINDEX 1\2\4\18,1\2\4\19,1\2\5\20,1\2\5\21,1\2\6\22,1\2\7\23,1\2\8\24,1\2\8\25,1\2\9\26,1\2\10\27,1\3\11\28,1\3\11\29,1\3\11\30,1\3\11\31,1\3\12\32,1\3\12\33,1\3\12\34,1\3\12\35,1\3\13\36,1\3\13\37,1\3\14\38,1\3\14\39,1\3\15\40,1\3\15\41,1\3\15\42,1\3\16\43,1\3\16\44,1\3\17\45,1\3\17\46
REM DIRNAME folder01,folder02,folder03,folder04,folder05,folder06,folder07,folder08,folder09,folder10,folder11,folder12,folder13,folder14,folder15,folder16,folder17,folder18,folder19,folder20,folder21,folder22,folder23,folder24,folder25,folder26,folder27,folder28,folder29,folder30,folder31,folder32,folder33,folder34,folder35,folder36,folder37,folder38,folder39,folder40,folder41,folder42,folder43,folder44,folder45,folder46
TITLE ""
FILE "15.mp3" MP3
  TRACK 01 AUDIO
    TITLE "0:"
    INDEX 01 00:00:00
  TRACK 02 AUDIO
    TITLE "28:cjc024_7651"
    INDEX 01 00:00:13
  TRACK 03 AUDIO
    TITLE "0:"
    INDEX 01 00:01:34
  TRACK 04 AUDIO
    TITLE "29:cjc024_7652"
    INDEX 01 00:01:73
  TRACK 05 AUDIO
    TITLE "0:"
    INDEX 01 00:03:66
  TRACK 06 AUDIO
    TITLE "30:cjc024_7653"
    INDEX 01 00:04:31
  TRACK 07 AUDIO
    TITLE "0:"
    INDEX 01 00:06:14
  TRACK 08 AUDIO
    TITLE "31:cjc024_7654"
    INDEX 01 00:06:37
  TRACK 09 AUDIO
    TITLE "0:"
    INDEX 01 00:08:23
  TRACK 10 AUDIO
    TITLE "28:cjc024_7655"
    INDEX 01 00:09:20
  TRACK 11 AUDIO
    TITLE "0:"
    INDEX 01 00:10:25
  TRACK 12 AUDIO
    TITLE "29:cjc024_7656"
    INDEX 01 00:10:65
  TRACK 13 AUDIO
    TITLE "0:"
    INDEX 01 00:13:22
  TRACK 14 AUDIO
    TITLE "30:cjc024_7657"
    INDEX 01 00:13:59
  TRACK 15 AUDIO
    TITLE "0:"
    INDEX 01 00:15:66
  TRACK 16 AUDIO
    TITLE "31:cjc024_7658"
    INDEX 01 00:16:12
  TRACK 17 AUDIO
    TITLE "0:"
    INDEX 01 00:18:21
  TRACK 18 AUDIO
    TITLE "28:cjc024_7659"
    INDEX 01 00:19:20
  TRACK 19 AUDIO
    TITLE "0:"
    INDEX 01 00:20:32
  TRACK 20 AUDIO
    TITLE "29:cjc024_7660"
    INDEX 01 00:20:65
  TRACK 21 AUDIO
    TITLE "0:"
    INDEX 01 00:22:15
  TRACK 22 AUDIO
    TITLE "30:cjc024_7661"
    INDEX 01 00:22:48
  TRACK 23 AUDIO
    TITLE "0:"
    INDEX 01 00:24:24
  TRACK 24 AUDIO
    TITLE "31:cjc024_7662"
    INDEX 01 00:24:41
  TRACK 25 AUDIO
    TITLE "0:"
    INDEX 01 00:26:15
  TRACK 26 AUDIO
    TITLE "28:cjc024_7663"
    INDEX 01 00:27:14
  TRACK 27 AUDIO
    TITLE "0:"
    INDEX 01 00:28:21
  TRACK 28 AUDIO
    TITLE "29:cjc024_7664"
    INDEX 01 00:29:01
  TRACK 29 AUDIO
    TITLE "0:"
    INDEX 01 00:32:29
  TRACK 30 AUDIO
    TITLE "30:cjc024_7665"
    INDEX 01 00:32:68
  TRACK 31 AUDIO
    TITLE "0:"
    INDEX 01 00:35:25
  TRACK 32 AUDIO
    TITLE "31:cjc024_7666"
    INDEX 01 00:35:51
  TRACK 33 AUDIO
    TITLE "0:"
    INDEX 01 00:38:08
  TRACK 34 AUDIO
    TITLE "28:cjc024_7667"
    INDEX 01 00:39:07
  TRACK 35 AUDIO
    TITLE "0:"
    INDEX 01 00:40:21
  TRACK 36 AUDIO
    TITLE "29:cjc024_7668"
    INDEX 01 00:40:58
  TRACK 37 AUDIO
    TITLE "0:"
    INDEX 01 00:44:40
  TRACK 38 AUDIO
    TITLE "30:cjc024_7669"
    INDEX 01 00:45:10
  TRACK 39 AUDIO
    TITLE "0:"
    INDEX 01 00:48:10
  TRACK 40 AUDIO
    TITLE "31:cjc024_7670"
    INDEX 01 00:48:42
  TRACK 41 AUDIO
    TITLE "0:"
    INDEX 01 00:51:44
  TRACK 42 AUDIO
    TITLE "28:cjc024_7671"
    INDEX 01 00:52:43
  TRACK 43 AUDIO
    TITLE "0:"
    INDEX 01 00:53:57
  TRACK 44 AUDIO
    TITLE "29:cjc024_7672"
    INDEX 01 00:54:21
  TRACK 45 AUDIO
    TITLE "0:"
    INDEX 01 00:57:56
  TRACK 46 AUDIO
    TITLE "30:cjc024_7673"
    INDEX 01 00:58:24
  TRACK 47 AUDIO
    TITLE "0:"
    INDEX 01 01:01:15
  TRACK 48 AUDIO
    TITLE "31:cjc024_7674"
    INDEX 01 01:01:46
  TRACK 49 AUDIO
    TITLE "0:"
    INDEX 01 01:04:39
  TRACK 50 AUDIO
    TITLE "28:cjc024_7675"
    INDEX 01 01:05:38
  TRACK 51 AUDIO
    TITLE "0:"
    INDEX 01 01:06:55
  TRACK 52 AUDIO
    TITLE "29:cjc024_7676"
    INDEX 01 01:07:21
  TRACK 53 AUDIO
    TITLE "0:"
    INDEX 01 01:09:24
  TRACK 54 AUDIO
    TITLE "30:cjc024_7677"
    INDEX 01 01:09:61
  TRACK 55 AUDIO
    TITLE "0:"
    INDEX 01 01:11:72
  TRACK 56 AUDIO
    TITLE "31:cjc024_7678"
    INDEX 01 01:12:24
  TRACK 57 AUDIO
    TITLE "0:"
    INDEX 01 01:14:37
  TRACK 58 AUDIO
    TITLE "28:cjc024_7679"
    INDEX 01 01:15:40
  TRACK 59 AUDIO
    TITLE "0:"
    INDEX 01 01:16:44
  TRACK 60 AUDIO
    TITLE "29:cjc024_7680"
    INDEX 01 01:17:12
  TRACK 61 AUDIO
    TITLE "0:"
    INDEX 01 01:19:23
  TRACK 62 AUDIO
    TITLE "30:cjc024_7681"
    INDEX 01 01:19:60
  TRACK 63 AUDIO
    TITLE "0:"
    INDEX 01 01:21:74
  TRACK 64 AUDIO
    TITLE "31:cjc024_7682"
    INDEX 01 01:22:29
  TRACK 65 AUDIO
    TITLE "0:"
    INDEX 01 01:24:41
  TRACK 66 AUDIO
    TITLE "28:cjc024_7683"
    INDEX 01 01:25:45
  TRACK 67 AUDIO
    TITLE "0:"
    INDEX 01 01:26:38
  TRACK 68 AUDIO
    TITLE "29:cjc024_7684"
    INDEX 01 01:27:03
  TRACK 69 AUDIO
    TITLE "0:"
    INDEX 01 01:28:31
  TRACK 70 AUDIO
    TITLE "30:cjc024_7685"
    INDEX 01 01:28:72
  TRACK 71 AUDIO
    TITLE "0:"
    INDEX 01 01:30:58
  TRACK 72 AUDIO
    TITLE "31:cjc024_7686"
    INDEX 01 01:31:12
  TRACK 73 AUDIO
    TITLE "0:"
    INDEX 01 01:32:72
  TRACK 74 AUDIO
    TITLE "28:cjc024_7687"
    INDEX 01 01:33:72
  TRACK 75 AUDIO
    TITLE "0:"
    INDEX 01 01:35:06
  TRACK 76 AUDIO
    TITLE "29:cjc024_7688"
    INDEX 01 01:35:45
  TRACK 77 AUDIO
    TITLE "0:"
    INDEX 01 01:37:52
  TRACK 78 AUDIO
    TITLE "30:cjc024_7689"
    INDEX 01 01:38:12
  TRACK 79 AUDIO
    TITLE "0:"
    INDEX 01 01:40:21
  TRACK 80 AUDIO
    TITLE "31:cjc024_7690"
    INDEX 01 01:40:44
  TRACK 81 AUDIO
    TITLE "0:"
    INDEX 01 01:42:53
  TRACK 82 AUDIO
    TITLE "28:cjc024_7691"
    INDEX 01 01:43:52
  TRACK 83 AUDIO
    TITLE "0:"
    INDEX 01 01:44:58
  TRACK 84 AUDIO
    TITLE "29:cjc024_7692"
    INDEX 01 01:45:20
  TRACK 85 AUDIO
    TITLE "0:"
    INDEX 01 01:47:72
  TRACK 86 AUDIO
    TITLE "30:cjc024_7693"
    INDEX 01 01:48:34
  TRACK 87 AUDIO
    TITLE "0:"
    INDEX 01 01:50:54
  TRACK 88 AUDIO
    TITLE "31:cjc024_7694"
    INDEX 01 01:51:03
  TRACK 89 AUDIO
    TITLE "0:"
    INDEX 01 01:53:25
  TRACK 90 AUDIO
    TITLE "28:cjc024_7695"
    INDEX 01 01:54:25
  TRACK 91 AUDIO
    TITLE "0:"
    INDEX 01 01:55:48
  TRACK 92 AUDIO
    TITLE "29:cjc024_7696"
    INDEX 01 01:56:12
  TRACK 93 AUDIO
    TITLE "0:"
    INDEX 01 01:58:44
  TRACK 94 AUDIO
    TITLE "30:cjc024_7697"
    INDEX 01 01:59:14
  TRACK 95 AUDIO
    TITLE "0:"
    INDEX 01 02:00:74
  TRACK 96 AUDIO
    TITLE "31:cjc024_7698"
    INDEX 01 02:01:27
  TRACK 97 AUDIO
    TITLE "0:"
    INDEX 01 02:03:12
  TRACK 98 AUDIO
    TITLE "28:cjc024_7699"
    INDEX 01 02:04:12
  TRACK 99 AUDIO
    TITLE "0:"
    INDEX 01 02:05:19
  TRACK 100 AUDIO
    TITLE "29:cjc024_7700"
    INDEX 01 02:05:56
  TRACK 101 AUDIO
    TITLE "0:"
    INDEX 01 02:08:03
  TRACK 102 AUDIO
    TITLE "30:cjc024_7701"
    INDEX 01 02:08:45
  TRACK 103 AUDIO
    TITLE "0:"
    INDEX 01 02:10:47
  TRACK 104 AUDIO
    TITLE "31:cjc024_7702"
    INDEX 01 02:10:73
  TRACK 105 AUDIO
    TITLE "0:"
    INDEX 01 02:13:01
  TRACK 106 AUDIO
    TITLE "28:cjc024_7703"
    INDEX 01 02:14:04
  TRACK 107 AUDIO
    TITLE "0:"
    INDEX 01 02:15:11
  TRACK 108 AUDIO
    TITLE "29:cjc024_7704"
    INDEX 01 02:15:45
  TRACK 109 AUDIO
    TITLE "0:"
    INDEX 01 02:18:33
  TRACK 110 AUDIO
    TITLE "30:cjc024_7705"
    INDEX 01 02:18:70
  TRACK 111 AUDIO
    TITLE "0:"
    INDEX 01 02:21:06
  TRACK 112 AUDIO
    TITLE "31:cjc024_7706"
    INDEX 01 02:21:33
  TRACK 113 AUDIO
    TITLE "0:"
    INDEX 01 02:23:44
  TRACK 114 AUDIO
    TITLE "28:cjc024_7707"
    INDEX 01 02:24:46
  TRACK 115 AUDIO
    TITLE "0:"
    INDEX 01 02:25:47
  TRACK 116 AUDIO
    TITLE "29:cjc024_7708"
    INDEX 01 02:26:11
  TRACK 117 AUDIO
    TITLE "0:"
    INDEX 01 02:28:69
  TRACK 118 AUDIO
    TITLE "30:cjc024_7709"
    INDEX 01 02:29:31
  TRACK 119 AUDIO
    TITLE "0:"
    INDEX 01 02:31:53
  TRACK 120 AUDIO
    TITLE "31:cjc024_7710"
    INDEX 01 02:32:02
  TRACK 121 AUDIO
    TITLE "0:"
    INDEX 01 02:34:24
  TRACK 122 AUDIO
    TITLE "28:cjc024_7711"
    INDEX 01 02:35:26
  TRACK 123 AUDIO
    TITLE "0:"
    INDEX 01 02:36:43
  TRACK 124 AUDIO
    TITLE "29:cjc024_7712"
    INDEX 01 02:37:05
  TRACK 125 AUDIO
    TITLE "0:"
    INDEX 01 02:39:20
  TRACK 126 AUDIO
    TITLE "30:cjc024_7713"
    INDEX 01 02:39:61
  TRACK 127 AUDIO
    TITLE "0:"
    INDEX 01 02:42:14
  TRACK 128 AUDIO
    TITLE "31:cjc024_7714"
    INDEX 01 02:42:42
  TRACK 129 AUDIO
    TITLE "0:"
    INDEX 01 02:44:70
  TRACK 130 AUDIO
    TITLE "28:cjc024_7715"
    INDEX 01 02:45:71
  TRACK 131 AUDIO
    TITLE "0:"
    INDEX 01 02:47:17
  TRACK 132 AUDIO
    TITLE "29:cjc024_7716"
    INDEX 01 02:47:56
  TRACK 133 AUDIO
    TITLE "0:"
    INDEX 01 02:50:08
  TRACK 134 AUDIO
    TITLE "30:cjc024_7717"
    INDEX 01 02:50:45
  TRACK 135 AUDIO
    TITLE "0:"
    INDEX 01 02:52:24
  TRACK 136 AUDIO
    TITLE "31:cjc024_7718"
    INDEX 01 02:52:52
  TRACK 137 AUDIO
    TITLE "0:"
    INDEX 01 02:54:29
  TRACK 138 AUDIO
    TITLE "28:cjc024_7719"
    INDEX 01 02:55:30
  TRACK 139 AUDIO
    TITLE "0:"
    INDEX 01 02:56:44
  TRACK 140 AUDIO
    TITLE "29:cjc024_7720"
    INDEX 01 02:57:06
  TRACK 141 AUDIO
    TITLE "0:"
    INDEX 01 02:59:32
  TRACK 142 AUDIO
    TITLE "30:cjc024_7721"
    INDEX 01 02:59:69
  TRACK 143 AUDIO
    TITLE "0:"
    INDEX 01 03:02:13
  TRACK 144 AUDIO
    TITLE "31:cjc024_7722"
    INDEX 01 03:02:38
  TRACK 145 AUDIO
    TITLE "0:"
    INDEX 01 03:04:55
  TRACK 146 AUDIO
    TITLE "28:cjc024_7723"
    INDEX 01 03:05:54
  TRACK 147 AUDIO
    TITLE "0:"
    INDEX 01 03:06:62
  TRACK 148 AUDIO
    TITLE "29:cjc024_7724"
    INDEX 01 03:07:24
  TRACK 149 AUDIO
    TITLE "0:"
    INDEX 01 03:08:64
  TRACK 150 AUDIO
    TITLE "30:cjc024_7725"
    INDEX 01 03:09:31
  TRACK 151 AUDIO
    TITLE "0:"
    INDEX 01 03:10:65
  TRACK 152 AUDIO
    TITLE "31:cjc024_7726"
    INDEX 01 03:11:16
  TRACK 153 AUDIO
    TITLE "0:"
    INDEX 01 03:12:52
  TRACK 154 AUDIO
    TITLE "28:cjc024_7727"
    INDEX 01 03:13:54
  TRACK 155 AUDIO
    TITLE "0:"
    INDEX 01 03:14:73
  TRACK 156 AUDIO
    TITLE "29:cjc024_7728"
    INDEX 01 03:15:33
  TRACK 157 AUDIO
    TITLE "0:"
    INDEX 01 03:19:47
  TRACK 158 AUDIO
    TITLE "30:cjc024_7729"
    INDEX 01 03:20:09
  TRACK 159 AUDIO
    TITLE "0:"
    INDEX 01 03:22:51
  TRACK 160 AUDIO
    TITLE "31:cjc024_7730"
    INDEX 01 03:23:01
  TRACK 161 AUDIO
    TITLE "0:"
    INDEX 01 03:25:43
  TRACK 162 AUDIO
    TITLE "28:cjc024_7731"
    INDEX 01 03:26:39
  TRACK 163 AUDIO
    TITLE "0:"
    INDEX 01 03:27:48
  TRACK 164 AUDIO
    TITLE "29:cjc024_7732"
    INDEX 01 03:28:12
  TRACK 165 AUDIO
    TITLE "0:"
    INDEX 01 03:31:01
  TRACK 166 AUDIO
    TITLE "30:cjc024_7733"
    INDEX 01 03:31:38
  TRACK 167 AUDIO
    TITLE "0:"
    INDEX 01 03:33:13
  TRACK 168 AUDIO
    TITLE "31:cjc024_7734"
    INDEX 01 03:33:43
  TRACK 169 AUDIO
    TITLE "0:"
    INDEX 01 03:35:18
  TRACK 170 AUDIO
    TITLE "28:cjc024_7735"
    INDEX 01 03:36:24
  TRACK 171 AUDIO
    TITLE "0:"
    INDEX 01 03:37:29
  TRACK 172 AUDIO
    TITLE "29:cjc024_7736"
    INDEX 01 03:37:68
  TRACK 173 AUDIO
    TITLE "0:"
    INDEX 01 03:40:10
  TRACK 174 AUDIO
    TITLE "30:cjc024_7737"
    INDEX 01 03:40:49
  TRACK 175 AUDIO
    TITLE "0:"
    INDEX 01 03:42:16
  TRACK 176 AUDIO
    TITLE "31:cjc024_7738"
    INDEX 01 03:42:44
  TRACK 177 AUDIO
    TITLE "0:"
    INDEX 01 03:44:11
  TRACK 178 AUDIO
    TITLE "28:cjc024_7739"
    INDEX 01 03:45:11
  TRACK 179 AUDIO
    TITLE "0:"
    INDEX 01 03:46:16
  TRACK 180 AUDIO
    TITLE "29:cjc024_7740"
    INDEX 01 03:46:57
  TRACK 181 AUDIO
    TITLE "0:"
    INDEX 01 03:48:52
  TRACK 182 AUDIO
    TITLE "30:cjc024_7741"
    INDEX 01 03:49:14
  TRACK 183 AUDIO
    TITLE "0:"
    INDEX 01 03:51:13
  TRACK 184 AUDIO
    TITLE "31:cjc024_7742"
    INDEX 01 03:51:37
  TRACK 185 AUDIO
    TITLE "0:"
    INDEX 01 03:53:36
  TRACK 186 AUDIO
    TITLE "28:cjc024_7743"
    INDEX 01 03:54:35
  TRACK 187 AUDIO
    TITLE "0:"
    INDEX 01 03:55:29
  TRACK 188 AUDIO
    TITLE "29:cjc024_7744"
    INDEX 01 03:55:74
  TRACK 189 AUDIO
    TITLE "0:"
    INDEX 01 03:57:47
  TRACK 190 AUDIO
    TITLE "30:cjc024_7745"
    INDEX 01 03:58:21
  TRACK 191 AUDIO
    TITLE "0:"
    INDEX 01 03:59:56
  TRACK 192 AUDIO
    TITLE "31:cjc024_7746"
    INDEX 01 04:00:10
  TRACK 193 AUDIO
    TITLE "0:"
    INDEX 01 04:01:47
  TRACK 194 AUDIO
    TITLE "28:cjc024_7747"
    INDEX 01 04:02:48
  TRACK 195 AUDIO
    TITLE "0:"
    INDEX 01 04:03:48
  TRACK 196 AUDIO
    TITLE "29:cjc024_7748"
    INDEX 01 04:04:08
  TRACK 197 AUDIO
    TITLE "0:"
    INDEX 01 04:05:64
  TRACK 198 AUDIO
    TITLE "30:cjc024_7749"
    INDEX 01 04:06:29
  TRACK 199 AUDIO
    TITLE "0:"
    INDEX 01 04:07:53
  TRACK 200 AUDIO
    TITLE "31:cjc024_7750"
    INDEX 01 04:08:12
  TRACK 201 AUDIO
    TITLE "0:"
    INDEX 01 04:09:39
  TRACK 202 AUDIO
    TITLE "28:cjc024_7751"
    INDEX 01 04:10:40
  TRACK 203 AUDIO
    TITLE "0:"
    INDEX 01 04:11:57
  TRACK 204 AUDIO
    TITLE "29:cjc024_7752"
    INDEX 01 04:12:21
  TRACK 205 AUDIO
    TITLE "0:"
    INDEX 01 04:13:70
  TRACK 206 AUDIO
    TITLE "30:cjc024_7753"
    INDEX 01 04:14:32
  TRACK 207 AUDIO
    TITLE "0:"
    INDEX 01 04:16:23
  TRACK 208 AUDIO
    TITLE "31:cjc024_7754"
    INDEX 01 04:16:48
  TRACK 209 AUDIO
    TITLE "0:"
    INDEX 01 04:18:42
  TRACK 210 AUDIO
    TITLE "28:cjc024_7755"
    INDEX 01 04:19:37
  TRACK 211 AUDIO
    TITLE "0:"
    INDEX 01 04:20:50
  TRACK 212 AUDIO
    TITLE "29:cjc024_7756"
    INDEX 01 04:21:12
  TRACK 213 AUDIO
    TITLE "0:"
    INDEX 01 04:22:55
  TRACK 214 AUDIO
    TITLE "30:cjc024_7757"
    INDEX 01 04:23:17
  TRACK 215 AUDIO
    TITLE "0:"
    INDEX 01 04:25:32
  TRACK 216 AUDIO
    TITLE "31:cjc024_7758"
    INDEX 01 04:25:57
  TRACK 217 AUDIO
    TITLE "0:"
    INDEX 01 04:27:72
  TRACK 218 AUDIO
    TITLE "28:cjc024_7759"
    INDEX 01 04:28:73
  TRACK 219 AUDIO
    TITLE "0:"
    INDEX 01 04:30:17
  TRACK 220 AUDIO
    TITLE "29:cjc024_7760"
    INDEX 01 04:30:54
  TRACK 221 AUDIO
    TITLE "0:"
    INDEX 01 04:32:57
  TRACK 222 AUDIO
    TITLE "30:cjc024_7761"
    INDEX 01 04:33:21
  TRACK 223 AUDIO
    TITLE "0:"
    INDEX 01 04:35:15
  TRACK 224 AUDIO
    TITLE "31:cjc024_7762"
    INDEX 01 04:35:36
  TRACK 225 AUDIO
    TITLE "0:"
    INDEX 01 04:37:27
  TRACK 226 AUDIO
    TITLE "28:cjc024_7763"
    INDEX 01 04:38:27
  TRACK 227 AUDIO
    TITLE "0:"
    INDEX 01 04:39:40
  TRACK 228 AUDIO
    TITLE "29:cjc024_7764"
    INDEX 01 04:40:02
  TRACK 229 AUDIO
    TITLE "0:"
    INDEX 01 04:42:54
  TRACK 230 AUDIO
    TITLE "30:cjc024_7765"
    INDEX 01 04:43:16
  TRACK 231 AUDIO
    TITLE "0:"
    INDEX 01 04:46:08
  TRACK 232 AUDIO
    TITLE "31:cjc024_7766"
    INDEX 01 04:46:40
  TRACK 233 AUDIO
    TITLE "0:"
    INDEX 01 04:49:34
  TRACK 234 AUDIO
    TITLE "28:cjc024_7767"
    INDEX 01 04:50:42
  TRACK 235 AUDIO
    TITLE "0:"
    INDEX 01 04:51:49
  TRACK 236 AUDIO
    TITLE "29:cjc024_7768"
    INDEX 01 04:52:17
  TRACK 237 AUDIO
    TITLE "0:"
    INDEX 01 04:54:16
  TRACK 238 AUDIO
    TITLE "30:cjc024_7769"
    INDEX 01 04:54:53
  TRACK 239 AUDIO
    TITLE "0:"
    INDEX 01 04:56:23
  TRACK 240 AUDIO
    TITLE "31:cjc024_7770"
    INDEX 01 04:56:46
  TRACK 241 AUDIO
    TITLE "0:"
    INDEX 01 04:58:16
  TRACK 242 AUDIO
    TITLE "28:cjc024_7771"
    INDEX 01 04:59:15
  TRACK 243 AUDIO
    TITLE "0:"
    INDEX 01 05:00:20
  TRACK 244 AUDIO
    TITLE "29:cjc024_7772"
    INDEX 01 05:00:60
  TRACK 245 AUDIO
    TITLE "0:"
    INDEX 01 05:03:01
  TRACK 246 AUDIO
    TITLE "30:cjc024_7773"
    INDEX 01 05:03:38
  TRACK 247 AUDIO
    TITLE "0:"
    INDEX 01 05:05:16
  TRACK 248 AUDIO
    TITLE "31:cjc024_7774"
    INDEX 01 05:05:39
  TRACK 249 AUDIO
    TITLE "0:"
    INDEX 01 05:07:15
  TRACK 250 AUDIO
    TITLE "28:cjc024_7775"
    INDEX 01 05:08:14
  TRACK 251 AUDIO
    TITLE "0:"
    INDEX 01 05:09:23
  TRACK 252 AUDIO
    TITLE "29:cjc024_7776"
    INDEX 01 05:09:68
  TRACK 253 AUDIO
    TITLE "0:"
    INDEX 01 05:11:65
  TRACK 254 AUDIO
    TITLE "30:cjc024_7777"
    INDEX 01 05:12:29
  TRACK 255 AUDIO
    TITLE "0:"
    INDEX 01 05:14:67
  TRACK 256 AUDIO
    TITLE "31:cjc024_7778"
    INDEX 01 05:15:20
  TRACK 257 AUDIO
    TITLE "0:"
    INDEX 01 05:17:58
  TRACK 258 AUDIO
    TITLE "28:cjc024_7779"
    INDEX 01 05:18:57
  TRACK 259 AUDIO
    TITLE "0:"
    INDEX 01 05:20:00
  TRACK 260 AUDIO
    TITLE "29:cjc024_7780"
    INDEX 01 05:20:35
  TRACK 261 AUDIO
    TITLE "0:"
    INDEX 01 05:22:47
  TRACK 262 AUDIO
    TITLE "30:cjc024_7781"
    INDEX 01 05:23:14
  TRACK 263 AUDIO
    TITLE "0:"
    INDEX 01 05:25:20
  TRACK 264 AUDIO
    TITLE "31:cjc024_7782"
    INDEX 01 05:25:46
  TRACK 265 AUDIO
    TITLE "0:"
    INDEX 01 05:27:56
  TRACK 266 AUDIO
    TITLE "28:cjc024_7783"
    INDEX 01 05:28:56
  TRACK 267 AUDIO
    TITLE "0:"
    INDEX 01 05:29:69
  TRACK 268 AUDIO
    TITLE "29:cjc024_7784"
    INDEX 01 05:30:33
  TRACK 269 AUDIO
    TITLE "0:"
    INDEX 01 05:34:11
  TRACK 270 AUDIO
    TITLE "30:cjc024_7785"
    INDEX 01 05:34:53
  TRACK 271 AUDIO
    TITLE "0:"
    INDEX 01 05:38:01
  TRACK 272 AUDIO
    TITLE "31:cjc024_7786"
    INDEX 01 05:38:33
  TRACK 273 AUDIO
    TITLE "0:"
    INDEX 01 05:41:57
  TRACK 274 AUDIO
    TITLE "28:cjc024_7787"
    INDEX 01 05:42:56
  TRACK 275 AUDIO
    TITLE "0:"
    INDEX 01 05:44:00
  TRACK 276 AUDIO
    TITLE "29:cjc024_7788"
    INDEX 01 05:44:39
  TRACK 277 AUDIO
    TITLE "0:"
    INDEX 01 05:46:50
  TRACK 278 AUDIO
    TITLE "30:cjc024_7789"
    INDEX 01 05:47:10
  TRACK 279 AUDIO
    TITLE "0:"
    INDEX 01 05:49:03
  TRACK 280 AUDIO
    TITLE "31:cjc024_7790"
    INDEX 01 05:49:31
  TRACK 281 AUDIO
    TITLE "0:"
    INDEX 01 05:51:24
  TRACK 282 AUDIO
    TITLE "28:cjc024_7791"
    INDEX 01 05:52:21
  TRACK 283 AUDIO
    TITLE "0:"
    INDEX 01 05:53:50
  TRACK 284 AUDIO
    TITLE "29:cjc024_7792"
    INDEX 01 05:54:12
  TRACK 285 AUDIO
    TITLE "0:"
    INDEX 01 05:56:52
  TRACK 286 AUDIO
    TITLE "30:cjc024_7793"
    INDEX 01 05:57:12
  TRACK 287 AUDIO
    TITLE "0:"
    INDEX 01 05:59:68
  TRACK 288 AUDIO
    TITLE "31:cjc024_7794"
    INDEX 01 06:00:23
  TRACK 289 AUDIO
    TITLE "0:"
    INDEX 01 06:03:01
  TRACK 290 AUDIO
    TITLE "28:cjc024_7795"
    INDEX 01 06:04:05
  TRACK 291 AUDIO
    TITLE "0:"
    INDEX 01 06:05:12
  TRACK 292 AUDIO
    TITLE "29:cjc024_7796"
    INDEX 01 06:05:51
  TRACK 293 AUDIO
    TITLE "0:"
    INDEX 01 06:07:72
  TRACK 294 AUDIO
    TITLE "30:cjc024_7797"
    INDEX 01 06:08:30
  TRACK 295 AUDIO
    TITLE "0:"
    INDEX 01 06:10:46
  TRACK 296 AUDIO
    TITLE "31:cjc024_7798"
    INDEX 01 06:10:70
  TRACK 297 AUDIO
    TITLE "0:"
    INDEX 01 06:13:11
  TRACK 298 AUDIO
    TITLE "28:cjc024_7799"
    INDEX 01 06:14:11
  TRACK 299 AUDIO
    TITLE "0:"
    INDEX 01 06:15:30
  TRACK 300 AUDIO
    TITLE "29:cjc024_7800"
    INDEX 01 06:15:67
  TRACK 301 AUDIO
    TITLE "0:"
    INDEX 01 06:17:60
  TRACK 302 AUDIO
    TITLE "30:cjc024_7801"
    INDEX 01 06:18:22
  TRACK 303 AUDIO
    TITLE "0:"
    INDEX 01 06:20:53
  TRACK 304 AUDIO
    TITLE "31:cjc024_7802"
    INDEX 01 06:21:01
  TRACK 305 AUDIO
    TITLE "0:"
    INDEX 01 06:23:27
  TRACK 306 AUDIO
    TITLE "28:cjc024_7803"
    INDEX 01 06:24:27
  TRACK 307 AUDIO
    TITLE "0:"
    INDEX 01 06:25:36
  TRACK 308 AUDIO
    TITLE "29:cjc024_7804"
    INDEX 01 06:25:73
  TRACK 309 AUDIO
    TITLE "0:"
    INDEX 01 06:27:68
  TRACK 310 AUDIO
    TITLE "30:cjc024_7805"
    INDEX 01 06:28:35
  TRACK 311 AUDIO
    TITLE "0:"
    INDEX 01 06:30:04
  TRACK 312 AUDIO
    TITLE "31:cjc024_7806"
    INDEX 01 06:30:30
  TRACK 313 AUDIO
    TITLE "0:"
    INDEX 01 06:31:74
  TRACK 314 AUDIO
    TITLE "28:cjc024_7807"
    INDEX 01 06:32:73
  TRACK 315 AUDIO
    TITLE "0:"
    INDEX 01 06:34:18
  TRACK 316 AUDIO
    TITLE "29:cjc024_7808"
    INDEX 01 06:34:57
  TRACK 317 AUDIO
    TITLE "0:"
    INDEX 01 06:36:65
  TRACK 318 AUDIO
    TITLE "30:cjc024_7809"
    INDEX 01 06:37:30
  TRACK 319 AUDIO
    TITLE "0:"
    INDEX 01 06:39:03
  TRACK 320 AUDIO
    TITLE "31:cjc024_7810"
    INDEX 01 06:39:28
  TRACK 321 AUDIO
    TITLE "0:"
    INDEX 01 06:41:02
  TRACK 322 AUDIO
    TITLE "28:cjc024_7811"
    INDEX 01 06:41:74
  TRACK 323 AUDIO
    TITLE "0:"
    INDEX 01 06:43:32
  TRACK 324 AUDIO
    TITLE "29:cjc024_7812"
    INDEX 01 06:43:71
  TRACK 325 AUDIO
    TITLE "0:"
    INDEX 01 06:46:50
  TRACK 326 AUDIO
    TITLE "30:cjc024_7813"
    INDEX 01 06:47:12
  TRACK 327 AUDIO
    TITLE "0:"
    INDEX 01 06:49:46
  TRACK 328 AUDIO
    TITLE "31:cjc024_7814"
    INDEX 01 06:49:74
  TRACK 329 AUDIO
    TITLE "0:"
    INDEX 01 06:52:31
  TRACK 330 AUDIO
    TITLE "28:cjc024_7815"
    INDEX 01 06:53:33
  TRACK 331 AUDIO
    TITLE "0:"
    INDEX 01 06:54:40
  TRACK 332 AUDIO
    TITLE "29:cjc024_7816"
    INDEX 01 06:55:06
  TRACK 333 AUDIO
    TITLE "0:"
    INDEX 01 06:57:46
  TRACK 334 AUDIO
    TITLE "30:cjc024_7817"
    INDEX 01 06:58:10
  TRACK 335 AUDIO
    TITLE "0:"
    INDEX 01 07:00:07
  TRACK 336 AUDIO
    TITLE "31:cjc024_7818"
    INDEX 01 07:00:35
  TRACK 337 AUDIO
    TITLE "0:"
    INDEX 01 07:02:30
  TRACK 338 AUDIO
    TITLE "28:cjc024_7819"
    INDEX 01 07:03:27
  TRACK 339 AUDIO
    TITLE "0:"
    INDEX 01 07:04:34
  TRACK 340 AUDIO
    TITLE "29:cjc024_7820"
    INDEX 01 07:04:73
  TRACK 341 AUDIO
    TITLE "0:"
    INDEX 01 07:07:54
  TRACK 342 AUDIO
    TITLE "30:cjc024_7821"
    INDEX 01 07:08:14
  TRACK 343 AUDIO
    TITLE "0:"
    INDEX 01 07:10:06
  TRACK 344 AUDIO
    TITLE "31:cjc024_7822"
    INDEX 01 07:10:27
  TRACK 345 AUDIO
    TITLE "0:"
    INDEX 01 07:12:16
  TRACK 346 AUDIO
    TITLE "28:cjc024_7823"
    INDEX 01 07:13:18
  TRACK 347 AUDIO
    TITLE "0:"
    INDEX 01 07:14:09
  TRACK 348 AUDIO
    TITLE "29:cjc024_7824"
    INDEX 01 07:14:46
  TRACK 349 AUDIO
    TITLE "0:"
    INDEX 01 07:16:61
  TRACK 350 AUDIO
    TITLE "30:cjc024_7825"
    INDEX 01 07:17:23
  TRACK 351 AUDIO
    TITLE "0:"
    INDEX 01 07:19:30
  TRACK 352 AUDIO
    TITLE "31:cjc024_7826"
    INDEX 01 07:19:55
  TRACK 353 AUDIO
    TITLE "0:"
    INDEX 01 07:21:62
  TRACK 354 AUDIO
    TITLE "28:cjc024_7827"
    INDEX 01 07:22:67
  TRACK 355 AUDIO
    TITLE "0:"
    INDEX 01 07:24:29
  TRACK 356 AUDIO
    TITLE "29:cjc024_7828"
    INDEX 01 07:24:66
  TRACK 357 AUDIO
    TITLE "0:"
    INDEX 01 07:28:17
  TRACK 358 AUDIO
    TITLE "30:cjc024_7829"
    INDEX 01 07:28:56
  TRACK 359 AUDIO
    TITLE "0:"
    INDEX 01 07:31:63
  TRACK 360 AUDIO
    TITLE "31:cjc024_7830"
    INDEX 01 07:32:13
  TRACK 361 AUDIO
    TITLE "0:"
    INDEX 01 07:35:19
  TRACK 362 AUDIO
    TITLE "28:cjc024_7831"
    INDEX 01 07:36:23
  TRACK 363 AUDIO
    TITLE "0:"
    INDEX 01 07:37:30
  TRACK 364 AUDIO
    TITLE "29:cjc024_7832"
    INDEX 01 07:37:67
  TRACK 365 AUDIO
    TITLE "0:"
    INDEX 01 07:39:21
  TRACK 366 AUDIO
    TITLE "30:cjc024_7833"
    INDEX 01 07:39:58
  TRACK 367 AUDIO
    TITLE "0:"
    INDEX 01 07:41:35
  TRACK 368 AUDIO
    TITLE "31:cjc024_7834"
    INDEX 01 07:41:61
  TRACK 369 AUDIO
    TITLE "0:"
    INDEX 01 07:43:38
  TRACK 370 AUDIO
    TITLE "28:cjc024_7835"
    INDEX 01 07:44:40
  TRACK 371 AUDIO
    TITLE "0:"
    INDEX 01 07:45:53
  TRACK 372 AUDIO
    TITLE "29:cjc024_7836"
    INDEX 01 07:46:13
  TRACK 373 AUDIO
    TITLE "0:"
    INDEX 01 07:48:53
  TRACK 374 AUDIO
    TITLE "30:cjc024_7837"
    INDEX 01 07:49:19
  TRACK 375 AUDIO
    TITLE "0:"
    INDEX 01 07:52:43
  TRACK 376 AUDIO
    TITLE "31:cjc024_7838"
    INDEX 01 07:52:71
  TRACK 377 AUDIO
    TITLE "0:"
    INDEX 01 07:56:19
  TRACK 378 AUDIO
    TITLE "28:cjc024_7839"
    INDEX 01 07:57:25
  TRACK 379 AUDIO
    TITLE "0:"
    INDEX 01 07:58:42
  TRACK 380 AUDIO
    TITLE "29:cjc024_7840"
    INDEX 01 07:59:06
  TRACK 381 AUDIO
    TITLE "0:"
    INDEX 01 08:00:64
  TRACK 382 AUDIO
    TITLE "30:cjc024_7841"
    INDEX 01 08:01:24
  TRACK 383 AUDIO
    TITLE "0:"
    INDEX 01 08:03:47
  TRACK 384 AUDIO
    TITLE "31:cjc024_7842"
    INDEX 01 08:03:72
  TRACK 385 AUDIO
    TITLE "0:"
    INDEX 01 08:06:22
  TRACK 386 AUDIO
    TITLE "28:cjc024_7843"
    INDEX 01 08:07:21
  TRACK 387 AUDIO
    TITLE "0:"
    INDEX 01 08:08:50
  TRACK 388 AUDIO
    TITLE "29:cjc024_7844"
    INDEX 01 08:09:12
  TRACK 389 AUDIO
    TITLE "0:"
    INDEX 01 08:10:49
  TRACK 390 AUDIO
    TITLE "30:cjc024_7845"
    INDEX 01 08:11:13
  TRACK 391 AUDIO
    TITLE "0:"
    INDEX 01 08:13:26
  TRACK 392 AUDIO
    TITLE "31:cjc024_7846"
    INDEX 01 08:13:53
  TRACK 393 AUDIO
    TITLE "0:"
    INDEX 01 08:15:66
  TRACK 394 AUDIO
    TITLE "28:cjc024_7847"
    INDEX 01 08:16:67
  TRACK 395 AUDIO
    TITLE "0:"
    INDEX 01 08:18:09
  TRACK 396 AUDIO
    TITLE "29:cjc024_7848"
    INDEX 01 08:18:46
  TRACK 397 AUDIO
    TITLE "0:"
    INDEX 01 08:20:51
  TRACK 398 AUDIO
    TITLE "30:cjc024_7849"
    INDEX 01 08:21:15
  TRACK 399 AUDIO
    TITLE "0:"
    INDEX 01 08:22:72
  TRACK 400 AUDIO
    TITLE "31:cjc024_7850"
    INDEX 01 08:23:20
  TRACK 401 AUDIO
    TITLE "0:"
    INDEX 01 08:24:74
  TRACK 402 AUDIO
    TITLE "28:cjc024_7851"
    INDEX 01 08:26:01
  TRACK 403 AUDIO
    TITLE "0:"
    INDEX 01 08:27:10
  TRACK 404 AUDIO
    TITLE "29:cjc024_7852"
    INDEX 01 08:27:47
  TRACK 405 AUDIO
    TITLE "0:"
    INDEX 01 08:31:18
  TRACK 406 AUDIO
    TITLE "30:cjc024_7853"
    INDEX 01 08:31:55
  TRACK 407 AUDIO
    TITLE "0:"
    INDEX 01 08:34:40
  TRACK 408 AUDIO
    TITLE "31:cjc024_7854"
    INDEX 01 08:34:65
  TRACK 409 AUDIO
    TITLE "0:"
    INDEX 01 08:37:52
  TRACK 410 AUDIO
    TITLE "28:cjc024_7855"
    INDEX 01 08:38:51
  TRACK 411 AUDIO
    TITLE "0:"
    INDEX 01 08:40:11
  TRACK 412 AUDIO
    TITLE "29:cjc024_7856"
    INDEX 01 08:40:46
  TRACK 413 AUDIO
    TITLE "0:"
    INDEX 01 08:42:21
  TRACK 414 AUDIO
    TITLE "30:cjc024_7857"
    INDEX 01 08:42:59
  TRACK 415 AUDIO
    TITLE "0:"
    INDEX 01 08:44:61
  TRACK 416 AUDIO
    TITLE "31:cjc024_7858"
    INDEX 01 08:45:12
  TRACK 417 AUDIO
    TITLE "0:"
    INDEX 01 08:47:19
  TRACK 418 AUDIO
    TITLE "28:cjc024_7859"
    INDEX 01 08:48:18
  TRACK 419 AUDIO
    TITLE "0:"
    INDEX 01 08:49:33
  TRACK 420 AUDIO
    TITLE "29:cjc024_7860"
    INDEX 01 08:49:70
  TRACK 421 AUDIO
    TITLE "0:"
    INDEX 01 08:52:51
  TRACK 422 AUDIO
    TITLE "30:cjc024_7861"
    INDEX 01 08:53:13
  TRACK 423 AUDIO
    TITLE "0:"
    INDEX 01 08:55:42
  TRACK 424 AUDIO
    TITLE "31:cjc024_7862"
    INDEX 01 08:55:65
  TRACK 425 AUDIO
    TITLE "0:"
    INDEX 01 08:58:17
  TRACK 426 AUDIO
    TITLE "28:cjc024_7863"
    INDEX 01 08:59:18
  TRACK 427 AUDIO
    TITLE "0:"
    INDEX 01 09:00:41
  TRACK 428 AUDIO
    TITLE "29:cjc024_7864"
    INDEX 01 09:01:05
  TRACK 429 AUDIO
    TITLE "0:"
    INDEX 01 09:03:63
  TRACK 430 AUDIO
    TITLE "30:cjc024_7865"
    INDEX 01 09:04:23
  TRACK 431 AUDIO
    TITLE "0:"
    INDEX 01 09:06:69
  TRACK 432 AUDIO
    TITLE "31:cjc024_7866"
    INDEX 01 09:07:17
  TRACK 433 AUDIO
    TITLE "0:"
    INDEX 01 09:09:65
  TRACK 434 AUDIO
    TITLE "28:cjc024_7867"
    INDEX 01 09:10:65
  TRACK 435 AUDIO
    TITLE "0:"
    INDEX 01 09:12:05
  TRACK 436 AUDIO
    TITLE "29:cjc024_7868"
    INDEX 01 09:12:44
  TRACK 437 AUDIO
    TITLE "0:"
    INDEX 01 09:15:39
  TRACK 438 AUDIO
    TITLE "30:cjc024_7869"
    INDEX 01 09:16:03
  TRACK 439 AUDIO
    TITLE "0:"
    INDEX 01 09:18:09
  TRACK 440 AUDIO
    TITLE "31:cjc024_7870"
    INDEX 01 09:18:35
  TRACK 441 AUDIO
    TITLE "0:"
    INDEX 01 09:20:48
  TRACK 442 AUDIO
    TITLE "28:cjc024_7871"
    INDEX 01 09:21:45
  TRACK 443 AUDIO
    TITLE "0:"
    INDEX 01 09:23:07
  TRACK 444 AUDIO
    TITLE "29:cjc024_7872"
    INDEX 01 09:23:44
  TRACK 445 AUDIO
    TITLE "0:"
    INDEX 01 09:27:50
  TRACK 446 AUDIO
    TITLE "30:cjc024_7873"
    INDEX 01 09:28:14
  TRACK 447 AUDIO
    TITLE "0:"
    INDEX 01 09:30:46
  TRACK 448 AUDIO
    TITLE "31:cjc024_7874"
    INDEX 01 09:30:71
  TRACK 449 AUDIO
    TITLE "0:"
    INDEX 01 09:33:33
  TRACK 450 AUDIO
    TITLE "28:cjc024_7875"
    INDEX 01 09:34:32
  TRACK 451 AUDIO
    TITLE "0:"
    INDEX 01 09:35:43
  TRACK 452 AUDIO
    TITLE "29:cjc024_7876"
    INDEX 01 09:36:05
  TRACK 453 AUDIO
    TITLE "0:"
    INDEX 01 09:38:18
  TRACK 454 AUDIO
    TITLE "30:cjc024_7877"
    INDEX 01 09:38:61
  TRACK 455 AUDIO
    TITLE "0:"
    INDEX 01 09:41:03
  TRACK 456 AUDIO
    TITLE "31:cjc024_7878"
    INDEX 01 09:41:22
  TRACK 457 AUDIO
    TITLE "0:"
    INDEX 01 09:43:39
  TRACK 458 AUDIO
    TITLE "28:cjc024_7879"
    INDEX 01 09:44:38
  TRACK 459 AUDIO
    TITLE "0:"
    INDEX 01 09:45:38
  TRACK 460 AUDIO
    TITLE "29:cjc024_7880"
    INDEX 01 09:45:73
  TRACK 461 AUDIO
    TITLE "0:"
    INDEX 01 09:49:06
  TRACK 462 AUDIO
    TITLE "30:cjc024_7881"
    INDEX 01 09:49:43
  TRACK 463 AUDIO
    TITLE "0:"
    INDEX 01 09:51:44
  TRACK 464 AUDIO
    TITLE "31:cjc024_7882"
    INDEX 01 09:51:72
  TRACK 465 AUDIO
    TITLE "0:"
    INDEX 01 09:53:72
  TRACK 466 AUDIO
    TITLE "28:cjc024_7883"
    INDEX 01 09:54:74
  TRACK 467 AUDIO
    TITLE "0:"
    INDEX 01 09:56:04
  TRACK 468 AUDIO
    TITLE "29:cjc024_7884"
    INDEX 01 09:56:43
  TRACK 469 AUDIO
    TITLE "0:"
    INDEX 01 09:58:01
  TRACK 470 AUDIO
    TITLE "30:cjc024_7885"
    INDEX 01 09:58:40
  TRACK 471 AUDIO
    TITLE "0:"
    INDEX 01 10:00:20
  TRACK 472 AUDIO
    TITLE "31:cjc024_7886"
    INDEX 01 10:00:43
  TRACK 473 AUDIO
    TITLE "0:"
    INDEX 01 10:02:20
  TRACK 474 AUDIO
    TITLE "28:cjc024_7887"
    INDEX 01 10:03:20
  TRACK 475 AUDIO
    TITLE "0:"
    INDEX 01 10:04:35
  TRACK 476 AUDIO
    TITLE "29:cjc024_7888"
    INDEX 01 10:04:74
  TRACK 477 AUDIO
    TITLE "0:"
    INDEX 01 10:07:29
  TRACK 478 AUDIO
    TITLE "30:cjc024_7889"
    INDEX 01 10:07:71
  TRACK 479 AUDIO
    TITLE "0:"
    INDEX 01 10:10:10
  TRACK 480 AUDIO
    TITLE "31:cjc024_7890"
    INDEX 01 10:10:40
  TRACK 481 AUDIO
    TITLE "0:"
    INDEX 01 10:12:54
  TRACK 482 AUDIO
    TITLE "28:cjc024_7891"
    INDEX 01 10:13:59
  TRACK 483 AUDIO
    TITLE "0:"
    INDEX 01 10:15:09
  TRACK 484 AUDIO
    TITLE "29:cjc024_7892"
    INDEX 01 10:15:50
  TRACK 485 AUDIO
    TITLE "0:"
    INDEX 01 10:17:38
  TRACK 486 AUDIO
    TITLE "30:cjc024_7893"
    INDEX 01 10:17:73
  TRACK 487 AUDIO
    TITLE "0:"
    INDEX 01 10:19:74
  TRACK 488 AUDIO
    TITLE "31:cjc024_7894"
    INDEX 01 10:20:20
  TRACK 489 AUDIO
    TITLE "0:"
    INDEX 01 10:22:19
  TRACK 490 AUDIO
    TITLE "28:cjc024_7895"
    INDEX 01 10:23:23
  TRACK 491 AUDIO
    TITLE "0:"
    INDEX 01 10:24:20
  TRACK 492 AUDIO
    TITLE "29:cjc024_7896"
    INDEX 01 10:24:59
  TRACK 493 AUDIO
    TITLE "0:"
    INDEX 01 10:26:25
  TRACK 494 AUDIO
    TITLE "30:cjc024_7897"
    INDEX 01 10:26:62
  TRACK 495 AUDIO
    TITLE "0:"
    INDEX 01 10:28:20
  TRACK 496 AUDIO
    TITLE "31:cjc024_7898"
    INDEX 01 10:28:43
  TRACK 497 AUDIO
    TITLE "0:"
    INDEX 01 10:29:72
  TRACK 498 AUDIO
    TITLE "28:cjc024_7899"
    INDEX 01 10:31:01
  TRACK 499 AUDIO
    TITLE "0:"
    INDEX 01 10:31:71
  TRACK 500 AUDIO
    TITLE "29:cjc024_7900"
    INDEX 01 10:32:37
  TRACK 501 AUDIO
    TITLE "0:"
    INDEX 01 10:34:38
  TRACK 502 AUDIO
    TITLE "30:cjc024_7901"
    INDEX 01 10:35:00
  TRACK 503 AUDIO
    TITLE "0:"
    INDEX 01 10:36:51
  TRACK 504 AUDIO
    TITLE "31:cjc024_7902"
    INDEX 01 10:37:01
  TRACK 505 AUDIO
    TITLE "0:"
    INDEX 01 10:38:50
  TRACK 506 AUDIO
    TITLE "28:cjc024_7903"
    INDEX 01 10:39:51
  TRACK 507 AUDIO
    TITLE "0:"
    INDEX 01 10:40:66
  TRACK 508 AUDIO
    TITLE "29:cjc024_7904"
    INDEX 01 10:41:30
  TRACK 509 AUDIO
    TITLE "0:"
    INDEX 01 10:43:35
  TRACK 510 AUDIO
    TITLE "30:cjc024_7905"
    INDEX 01 10:43:72
  TRACK 511 AUDIO
    TITLE "0:"
    INDEX 01 10:46:31
  TRACK 512 AUDIO
    TITLE "31:cjc024_7906"
    INDEX 01 10:46:55
  TRACK 513 AUDIO
    TITLE "0:"
    INDEX 01 10:49:14
  TRACK 514 AUDIO
    TITLE "28:cjc024_7907"
    INDEX 01 10:50:16
  TRACK 515 AUDIO
    TITLE "0:"
    INDEX 01 10:51:37
  TRACK 516 AUDIO
    TITLE "29:cjc024_7908"
    INDEX 01 10:52:01
  TRACK 517 AUDIO
    TITLE "0:"
    INDEX 01 10:53:67
  TRACK 518 AUDIO
    TITLE "30:cjc024_7909"
    INDEX 01 10:54:25
  TRACK 519 AUDIO
    TITLE "0:"
    INDEX 01 10:56:12
  TRACK 520 AUDIO
    TITLE "31:cjc024_7910"
    INDEX 01 10:56:48
  TRACK 521 AUDIO
    TITLE "0:"
    INDEX 01 10:58:37
  TRACK 522 AUDIO
    TITLE "28:cjc024_7911"
    INDEX 01 10:59:50
  TRACK 523 AUDIO
    TITLE "0:"
    INDEX 01 11:00:63
  TRACK 524 AUDIO
    TITLE "29:cjc024_7912"
    INDEX 01 11:01:27
  TRACK 525 AUDIO
    TITLE "0:"
    INDEX 01 11:03:44
  TRACK 526 AUDIO
    TITLE "30:cjc024_7913"
    INDEX 01 11:04:02
  TRACK 527 AUDIO
    TITLE "0:"
    INDEX 01 11:06:28
  TRACK 528 AUDIO
    TITLE "31:cjc024_7914"
    INDEX 01 11:06:54
  TRACK 529 AUDIO
    TITLE "0:"
    INDEX 01 11:09:03
  TRACK 530 AUDIO
    TITLE "28:cjc024_7915"
    INDEX 01 11:10:05
  TRACK 531 AUDIO
    TITLE "0:"
    INDEX 01 11:11:29
  TRACK 532 AUDIO
    TITLE "29:cjc024_7916"
    INDEX 01 11:11:67
  TRACK 533 AUDIO
    TITLE "0:"
    INDEX 01 11:14:40
  TRACK 534 AUDIO
    TITLE "30:cjc024_7917"
    INDEX 01 11:14:69
  TRACK 535 AUDIO
    TITLE "0:"
    INDEX 01 11:17:20
  TRACK 536 AUDIO
    TITLE "31:cjc024_7918"
    INDEX 01 11:17:52
  TRACK 537 AUDIO
    TITLE "0:"
    INDEX 01 11:20:01
  TRACK 538 AUDIO
    TITLE "28:cjc024_7919"
    INDEX 01 11:21:08
  TRACK 539 AUDIO
    TITLE "0:"
    INDEX 01 11:22:14
  TRACK 540 AUDIO
    TITLE "29:cjc024_7920"
    INDEX 01 11:22:55
  TRACK 541 AUDIO
    TITLE "0:"
    INDEX 01 11:25:08
  TRACK 542 AUDIO
    TITLE "30:cjc024_7921"
    INDEX 01 11:25:43
  TRACK 543 AUDIO
    TITLE "0:"
    INDEX 01 11:27:42
  TRACK 544 AUDIO
    TITLE "31:cjc024_7922"
    INDEX 01 11:27:68
  TRACK 545 AUDIO
    TITLE "0:"
    INDEX 01 11:29:67
  TRACK 546 AUDIO
    TITLE "28:cjc024_7923"
    INDEX 01 11:30:66
  TRACK 547 AUDIO
    TITLE "0:"
    INDEX 01 11:31:65
  TRACK 548 AUDIO
    TITLE "29:cjc024_7924"
    INDEX 01 11:32:32
  TRACK 549 AUDIO
    TITLE "0:"
    INDEX 01 11:34:56
  TRACK 550 AUDIO
    TITLE "30:cjc024_7925"
    INDEX 01 11:35:18
  TRACK 551 AUDIO
    TITLE "0:"
    INDEX 01 11:37:39
  TRACK 552 AUDIO
    TITLE "31:cjc024_7926"
    INDEX 01 11:37:66
  TRACK 553 AUDIO
    TITLE "0:"
    INDEX 01 11:40:12
  TRACK 554 AUDIO
    TITLE "28:cjc024_7927"
    INDEX 01 11:41:15
  TRACK 555 AUDIO
    TITLE "0:"
    INDEX 01 11:42:20
  TRACK 556 AUDIO
    TITLE "29:cjc024_7928"
    INDEX 01 11:42:57
  TRACK 557 AUDIO
    TITLE "0:"
    INDEX 01 11:45:28
  TRACK 558 AUDIO
    TITLE "30:cjc024_7929"
    INDEX 01 11:45:64
  TRACK 559 AUDIO
    TITLE "0:"
    INDEX 01 11:47:57
  TRACK 560 AUDIO
    TITLE "31:cjc024_7930"
    INDEX 01 11:48:09
  TRACK 561 AUDIO
    TITLE "0:"
    INDEX 01 11:50:14
  TRACK 562 AUDIO
    TITLE "28:cjc024_7931"
    INDEX 01 11:51:11
  TRACK 563 AUDIO
    TITLE "0:"
    INDEX 01 11:52:21
  TRACK 564 AUDIO
    TITLE "29:cjc024_7932"
    INDEX 01 11:52:62
  TRACK 565 AUDIO
    TITLE "0:"
    INDEX 01 11:55:29
  TRACK 566 AUDIO
    TITLE "30:cjc024_7933"
    INDEX 01 11:55:68
  TRACK 567 AUDIO
    TITLE "0:"
    INDEX 01 11:58:07
  TRACK 568 AUDIO
    TITLE "31:cjc024_7934"
    INDEX 01 11:58:35
  TRACK 569 AUDIO
    TITLE "0:"
    INDEX 01 12:00:49
  TRACK 570 AUDIO
    TITLE "28:cjc024_7935"
    INDEX 01 12:01:53
  TRACK 571 AUDIO
    TITLE "0:"
    INDEX 01 12:02:64
  TRACK 572 AUDIO
    TITLE "29:cjc024_7936"
    INDEX 01 12:03:28
  TRACK 573 AUDIO
    TITLE "0:"
    INDEX 01 12:05:17
  TRACK 574 AUDIO
    TITLE "30:cjc024_7937"
    INDEX 01 12:05:57
  TRACK 575 AUDIO
    TITLE "0:"
    INDEX 01 12:07:26
  TRACK 576 AUDIO
    TITLE "31:cjc024_7938"
    INDEX 01 12:07:53
  TRACK 577 AUDIO
    TITLE "0:"
    INDEX 01 12:09:27
  TRACK 578 AUDIO
    TITLE "28:cjc024_7939"
    INDEX 01 12:10:36
  TRACK 579 AUDIO
    TITLE "0:"
    INDEX 01 12:11:34
  TRACK 580 AUDIO
    TITLE "29:cjc024_7940"
    INDEX 01 12:11:73
  TRACK 581 AUDIO
    TITLE "0:"
    INDEX 01 12:14:52
  TRACK 582 AUDIO
    TITLE "30:cjc024_7941"
    INDEX 01 12:15:12
  TRACK 583 AUDIO
    TITLE "0:"
    INDEX 01 12:17:17
  TRACK 584 AUDIO
    TITLE "31:cjc024_7942"
    INDEX 01 12:17:40
  TRACK 585 AUDIO
    TITLE "0:"
    INDEX 01 12:19:47
  TRACK 586 AUDIO
    TITLE "28:cjc024_7943"
    INDEX 01 12:20:46
  TRACK 587 AUDIO
    TITLE "0:"
    INDEX 01 12:21:52
  TRACK 588 AUDIO
    TITLE "29:cjc024_7944"
    INDEX 01 12:22:16
  TRACK 589 AUDIO
    TITLE "0:"
    INDEX 01 12:27:19
  TRACK 590 AUDIO
    TITLE "30:cjc024_7945"
    INDEX 01 12:27:56
  TRACK 591 AUDIO
    TITLE "0:"
    INDEX 01 12:30:23
  TRACK 592 AUDIO
    TITLE "31:cjc024_7946"
    INDEX 01 12:30:51
  TRACK 593 AUDIO
    TITLE "0:"
    INDEX 01 12:33:18
  TRACK 594 AUDIO
    TITLE "28:cjc024_7947"
    INDEX 01 12:34:15
  TRACK 595 AUDIO
    TITLE "0:"
    INDEX 01 12:35:24
  TRACK 596 AUDIO
    TITLE "29:cjc024_7948"
    INDEX 01 12:35:63
  TRACK 597 AUDIO
    TITLE "0:"
    INDEX 01 12:38:36
  TRACK 598 AUDIO
    TITLE "30:cjc024_7949"
    INDEX 01 12:39:08
  TRACK 599 AUDIO
    TITLE "0:"
    INDEX 01 12:41:74
  TRACK 600 AUDIO
    TITLE "31:cjc024_7950"
    INDEX 01 12:42:28
  TRACK 601 AUDIO
    TITLE "0:"
    INDEX 01 12:45:19
  TRACK 602 AUDIO
    TITLE "28:cjc024_7951"
    INDEX 01 12:46:14
  TRACK 603 AUDIO
    TITLE "0:"
    INDEX 01 12:47:31
  TRACK 604 AUDIO
    TITLE "29:cjc024_7952"
    INDEX 01 12:48:00
  TRACK 605 AUDIO
    TITLE "0:"
    INDEX 01 12:51:02
  TRACK 606 AUDIO
    TITLE "30:cjc024_7953"
    INDEX 01 12:51:37
  TRACK 607 AUDIO
    TITLE "0:"
    INDEX 01 12:54:26
  TRACK 608 AUDIO
    TITLE "31:cjc024_7954"
    INDEX 01 12:54:47
  TRACK 609 AUDIO
    TITLE "0:"
    INDEX 01 12:57:36
  TRACK 610 AUDIO
    TITLE "28:cjc024_7955"
    INDEX 01 12:58:33
  TRACK 611 AUDIO
    TITLE "0:"
    INDEX 01 12:59:44
  TRACK 612 AUDIO
    TITLE "29:cjc024_7956"
    INDEX 01 13:00:11
  TRACK 613 AUDIO
    TITLE "0:"
    INDEX 01 13:02:21
  TRACK 614 AUDIO
    TITLE "30:cjc024_7957"
    INDEX 01 13:02:60
  TRACK 615 AUDIO
    TITLE "0:"
    INDEX 01 13:04:49
  TRACK 616 AUDIO
    TITLE "31:cjc024_7958"
    INDEX 01 13:05:04
  TRACK 617 AUDIO
    TITLE "0:"
    INDEX 01 13:06:66
  TRACK 618 AUDIO
    TITLE "28:cjc024_7959"
    INDEX 01 13:07:67
  TRACK 619 AUDIO
    TITLE "0:"
    INDEX 01 13:08:71
  TRACK 620 AUDIO
    TITLE "29:cjc024_7960"
    INDEX 01 13:09:33
  TRACK 621 AUDIO
    TITLE "0:"
    INDEX 01 13:12:27
  TRACK 622 AUDIO
    TITLE "30:cjc024_7961"
    INDEX 01 13:12:69
  TRACK 623 AUDIO
    TITLE "0:"
    INDEX 01 13:14:62
  TRACK 624 AUDIO
    TITLE "31:cjc024_7962"
    INDEX 01 13:15:10
  TRACK 625 AUDIO
    TITLE "0:"
    INDEX 01 13:17:03
  TRACK 626 AUDIO
    TITLE "28:cjc024_7963"
    INDEX 01 13:18:05
  TRACK 627 AUDIO
    TITLE "0:"
    INDEX 01 13:19:26
  TRACK 628 AUDIO
    TITLE "29:cjc024_7964"
    INDEX 01 13:19:65
  TRACK 629 AUDIO
    TITLE "0:"
    INDEX 01 13:21:60
  TRACK 630 AUDIO
    TITLE "30:cjc024_7965"
    INDEX 01 13:22:22
  TRACK 631 AUDIO
    TITLE "0:"
    INDEX 01 13:24:35
  TRACK 632 AUDIO
    TITLE "31:cjc024_7966"
    INDEX 01 13:24:58
  TRACK 633 AUDIO
    TITLE "0:"
    INDEX 01 13:26:73
  TRACK 634 AUDIO
    TITLE "28:cjc024_7967"
    INDEX 01 13:27:72
  TRACK 635 AUDIO
    TITLE "0:"
    INDEX 01 13:29:02
  TRACK 636 AUDIO
    TITLE "29:cjc024_7968"
    INDEX 01 13:29:42
  TRACK 637 AUDIO
    TITLE "0:"
    INDEX 01 13:31:21
  TRACK 638 AUDIO
    TITLE "30:cjc024_7969"
    INDEX 01 13:31:68
  TRACK 639 AUDIO
    TITLE "0:"
    INDEX 01 13:33:41
  TRACK 640 AUDIO
    TITLE "31:cjc024_7970"
    INDEX 01 13:34:06
  TRACK 641 AUDIO
    TITLE "0:"
    INDEX 01 13:35:58
  TRACK 642 AUDIO
    TITLE "28:cjc024_7971"
    INDEX 01 13:36:63
  TRACK 643 AUDIO
    TITLE "0:"
    INDEX 01 13:38:09
  TRACK 644 AUDIO
    TITLE "29:cjc024_7972"
    INDEX 01 13:38:50
  TRACK 645 AUDIO
    TITLE "0:"
    INDEX 01 13:41:27
  TRACK 646 AUDIO
    TITLE "30:cjc024_7973"
    INDEX 01 13:41:64
  TRACK 647 AUDIO
    TITLE "0:"
    INDEX 01 13:44:24
  TRACK 648 AUDIO
    TITLE "31:cjc024_7974"
    INDEX 01 13:44:63
  TRACK 649 AUDIO
    TITLE "0:"
    INDEX 01 13:47:18
  TRACK 650 AUDIO
    TITLE "28:cjc024_7975"
    INDEX 01 13:48:31
  TRACK 651 AUDIO
    TITLE "0:"
    INDEX 01 13:49:48
  TRACK 652 AUDIO
    TITLE "29:cjc024_7976"
    INDEX 01 13:50:16
  TRACK 653 AUDIO
    TITLE "0:"
    INDEX 01 13:52:64
  TRACK 654 AUDIO
    TITLE "30:cjc024_7977"
    INDEX 01 13:53:24
  TRACK 655 AUDIO
    TITLE "0:"
    INDEX 01 13:55:43
  TRACK 656 AUDIO
    TITLE "31:cjc024_7978"
    INDEX 01 13:55:70
  TRACK 657 AUDIO
    TITLE "0:"
    INDEX 01 13:58:14
  TRACK 658 AUDIO
    TITLE "28:cjc024_7979"
    INDEX 01 13:59:15
  TRACK 659 AUDIO
    TITLE "0:"
    INDEX 01 14:00:28
  TRACK 660 AUDIO
    TITLE "29:cjc024_7980"
    INDEX 01 14:00:68
  TRACK 661 AUDIO
    TITLE "0:"
    INDEX 01 14:04:40
  TRACK 662 AUDIO
    TITLE "30:cjc024_7981"
    INDEX 01 14:05:00
  TRACK 663 AUDIO
    TITLE "0:"
    INDEX 01 14:08:18
  TRACK 664 AUDIO
    TITLE "31:cjc024_7982"
    INDEX 01 14:08:46
  TRACK 665 AUDIO
    TITLE "0:"
    INDEX 01 14:11:62
  TRACK 666 AUDIO
    TITLE "28:cjc024_7983"
    INDEX 01 14:12:63
  TRACK 667 AUDIO
    TITLE "0:"
    INDEX 01 14:14:17
  TRACK 668 AUDIO
    TITLE "29:cjc024_7984"
    INDEX 01 14:14:56
  TRACK 669 AUDIO
    TITLE "0:"
    INDEX 01 14:18:11
  TRACK 670 AUDIO
    TITLE "30:cjc024_7985"
    INDEX 01 14:18:48
  TRACK 671 AUDIO
    TITLE "0:"
    INDEX 01 14:21:21
  TRACK 672 AUDIO
    TITLE "31:cjc024_7986"
    INDEX 01 14:21:46
  TRACK 673 AUDIO
    TITLE "0:"
    INDEX 01 14:24:19
  TRACK 674 AUDIO
    TITLE "28:cjc024_7987"
    INDEX 01 14:25:21
  TRACK 675 AUDIO
    TITLE "0:"
    INDEX 01 14:26:38
  TRACK 676 AUDIO
    TITLE "29:cjc024_7988"
    INDEX 01 14:27:02
  TRACK 677 AUDIO
    TITLE "0:"
    INDEX 01 14:29:09
  TRACK 678 AUDIO
    TITLE "30:cjc024_7989"
    INDEX 01 14:29:48
  TRACK 679 AUDIO
    TITLE "0:"
    INDEX 01 14:31:33
  TRACK 680 AUDIO
    TITLE "31:cjc024_7990"
    INDEX 01 14:31:54
  TRACK 681 AUDIO
    TITLE "0:"
    INDEX 01 14:33:42
  TRACK 682 AUDIO
    TITLE "28:cjc024_7991"
    INDEX 01 14:34:43
  TRACK 683 AUDIO
    TITLE "0:"
    INDEX 01 14:35:56
  TRACK 684 AUDIO
    TITLE "29:cjc024_7992"
    INDEX 01 14:36:20
  TRACK 685 AUDIO
    TITLE "0:"
    INDEX 01 14:38:17
  TRACK 686 AUDIO
    TITLE "30:cjc024_7993"
    INDEX 01 14:38:54
  TRACK 687 AUDIO
    TITLE "0:"
    INDEX 01 14:40:49
  TRACK 688 AUDIO
    TITLE "31:cjc024_7994"
    INDEX 01 14:41:02
  TRACK 689 AUDIO
    TITLE "0:"
    INDEX 01 14:42:72
  TRACK 690 AUDIO
    TITLE "28:cjc024_7995"
    INDEX 01 14:43:69
  TRACK 691 AUDIO
    TITLE "0:"
    INDEX 01 14:45:04
  TRACK 692 AUDIO
    TITLE "29:cjc024_7996"
    INDEX 01 14:45:35
  TRACK 693 AUDIO
    TITLE "0:"
    INDEX 01 14:48:51
  TRACK 694 AUDIO
    TITLE "30:cjc024_7997"
    INDEX 01 14:49:13
  TRACK 695 AUDIO
    TITLE "0:"
    INDEX 01 14:51:38
  TRACK 696 AUDIO
    TITLE "31:cjc024_7998"
    INDEX 01 14:51:63
  TRACK 697 AUDIO
    TITLE "0:"
    INDEX 01 14:54:08
  TRACK 698 AUDIO
    TITLE "28:cjc024_7999"
    INDEX 01 14:55:10
  TRACK 699 AUDIO
    TITLE "0:"
    INDEX 01 14:56:27
  TRACK 700 AUDIO
    TITLE "29:cjc024_8000"
    INDEX 01 14:56:62
  TRACK 701 AUDIO
    TITLE "0:"
    INDEX 01 15:00:11
  TRACK 702 AUDIO
    TITLE "30:cjc024_8001"
    INDEX 01 15:00:48
  TRACK 703 AUDIO
    TITLE "0:"
    INDEX 01 15:04:19
  TRACK 704 AUDIO
    TITLE "31:cjc024_8002"
    INDEX 01 15:04:40
  TRACK 705 AUDIO
    TITLE "0:"
    INDEX 01 15:08:11
  TRACK 706 AUDIO
    TITLE "28:cjc024_8003"
    INDEX 01 15:09:10
  TRACK 707 AUDIO
    TITLE "0:"
    INDEX 01 15:10:11
  TRACK 708 AUDIO
    TITLE "29:cjc024_8004"
    INDEX 01 15:10:53
  TRACK 709 AUDIO
    TITLE "0:"
    INDEX 01 15:12:49
  TRACK 710 AUDIO
    TITLE "30:cjc024_8005"
    INDEX 01 15:13:12
  TRACK 711 AUDIO
    TITLE "0:"
    INDEX 01 15:14:68
  TRACK 712 AUDIO
    TITLE "31:cjc024_8006"
    INDEX 01 15:15:15
  TRACK 713 AUDIO
    TITLE "0:"
    INDEX 01 15:16:73
  TRACK 714 AUDIO
    TITLE "28:cjc024_8007"
    INDEX 01 15:17:72
  TRACK 715 AUDIO
    TITLE "0:"
    INDEX 01 15:18:74
  TRACK 716 AUDIO
    TITLE "29:cjc024_8008"
    INDEX 01 15:19:36
  TRACK 717 AUDIO
    TITLE "0:"
    INDEX 01 15:21:21
  TRACK 718 AUDIO
    TITLE "30:cjc024_8009"
    INDEX 01 15:21:58
  TRACK 719 AUDIO
    TITLE "0:"
    INDEX 01 15:23:59
  TRACK 720 AUDIO
    TITLE "31:cjc024_8010"
    INDEX 01 15:24:10
  TRACK 721 AUDIO
    TITLE "0:"
    INDEX 01 15:26:08
  TRACK 722 AUDIO
    TITLE "28:cjc024_8011"
    INDEX 01 15:27:10
  TRACK 723 AUDIO
    TITLE "0:"
    INDEX 01 15:28:09
  TRACK 724 AUDIO
    TITLE "29:cjc024_8012"
    INDEX 01 15:28:48
  TRACK 725 AUDIO
    TITLE "0:"
    INDEX 01 15:30:47
  TRACK 726 AUDIO
    TITLE "30:cjc024_8013"
    INDEX 01 15:31:14
  TRACK 727 AUDIO
    TITLE "0:"
    INDEX 01 15:32:68
  TRACK 728 AUDIO
    TITLE "31:cjc024_8014"
    INDEX 01 15:33:16
  TRACK 729 AUDIO
    TITLE "0:"
    INDEX 01 15:34:73
  TRACK 730 AUDIO
    TITLE "28:cjc024_8015"
    INDEX 01 15:35:70
  TRACK 731 AUDIO
    TITLE "0:"
    INDEX 01 15:37:10
  TRACK 732 AUDIO
    TITLE "29:cjc024_8016"
    INDEX 01 15:37:47
  TRACK 733 AUDIO
    TITLE "0:"
    INDEX 01 15:40:07
  TRACK 734 AUDIO
    TITLE "30:cjc024_8017"
    INDEX 01 15:40:46
  TRACK 735 AUDIO
    TITLE "0:"
    INDEX 01 15:42:72
  TRACK 736 AUDIO
    TITLE "31:cjc024_8018"
    INDEX 01 15:43:25
  TRACK 737 AUDIO
    TITLE "0:"
    INDEX 01 15:45:55
  TRACK 738 AUDIO
    TITLE "28:cjc024_8019"
    INDEX 01 15:46:54
  TRACK 739 AUDIO
    TITLE "0:"
    INDEX 01 15:47:60
  TRACK 740 AUDIO
    TITLE "29:cjc024_8020"
    INDEX 01 15:48:22
  TRACK 741 AUDIO
    TITLE "0:"
    INDEX 01 15:50:40
  TRACK 742 AUDIO
    TITLE "30:cjc024_8021"
    INDEX 01 15:51:04
  TRACK 743 AUDIO
    TITLE "0:"
    INDEX 01 15:52:65
  TRACK 744 AUDIO
    TITLE "31:cjc024_8022"
    INDEX 01 15:53:23
  TRACK 745 AUDIO
    TITLE "0:"
    INDEX 01 15:55:04
  TRACK 746 AUDIO
    TITLE "28:cjc024_8023"
    INDEX 01 15:56:12
  TRACK 747 AUDIO
    TITLE "0:"
    INDEX 01 15:57:25
  TRACK 748 AUDIO
    TITLE "29:cjc024_8024"
    INDEX 01 15:57:64
  TRACK 749 AUDIO
    TITLE "0:"
    INDEX 01 15:59:55
  TRACK 750 AUDIO
    TITLE "30:cjc024_8025"
    INDEX 01 16:00:17
  TRACK 751 AUDIO
    TITLE "0:"
    INDEX 01 16:01:69
  TRACK 752 AUDIO
    TITLE "31:cjc024_8026"
    INDEX 01 16:02:20
  TRACK 753 AUDIO
    TITLE "0:"
    INDEX 01 16:03:68
  TRACK 754 AUDIO
    TITLE "28:cjc024_8027"
    INDEX 01 16:04:70
  TRACK 755 AUDIO
    TITLE "0:"
    INDEX 01 16:06:00
  TRACK 756 AUDIO
    TITLE "29:cjc024_8028"
    INDEX 01 16:06:39
  TRACK 757 AUDIO
    TITLE "0:"
    INDEX 01 16:09:34
  TRACK 758 AUDIO
    TITLE "30:cjc024_8029"
    INDEX 01 16:09:73
  TRACK 759 AUDIO
    TITLE "0:"
    INDEX 01 16:12:14
  TRACK 760 AUDIO
    TITLE "31:cjc024_8030"
    INDEX 01 16:12:40
  TRACK 761 AUDIO
    TITLE "0:"
    INDEX 01 16:14:56
  TRACK 762 AUDIO
    TITLE "28:cjc024_8031"
    INDEX 01 16:15:58
  TRACK 763 AUDIO
    TITLE "0:"
    INDEX 01 16:16:63
  TRACK 764 AUDIO
    TITLE "29:cjc024_8032"
    INDEX 01 16:17:25
  TRACK 765 AUDIO
    TITLE "0:"
    INDEX 01 16:19:60
  TRACK 766 AUDIO
    TITLE "30:cjc024_8033"
    INDEX 01 16:20:22
  TRACK 767 AUDIO
    TITLE "0:"
    INDEX 01 16:22:27
  TRACK 768 AUDIO
    TITLE "31:cjc024_8034"
    INDEX 01 16:22:52
  TRACK 769 AUDIO
    TITLE "0:"
    INDEX 01 16:24:57
  TRACK 770 AUDIO
    TITLE "28:cjc024_8035"
    INDEX 01 16:25:54
  TRACK 771 AUDIO
    TITLE "0:"
    INDEX 01 16:26:60
  TRACK 772 AUDIO
    TITLE "29:cjc024_8036"
    INDEX 01 16:27:26
  TRACK 773 AUDIO
    TITLE "0:"
    INDEX 01 16:29:72
  TRACK 774 AUDIO
    TITLE "30:cjc024_8037"
    INDEX 01 16:30:36
  TRACK 775 AUDIO
    TITLE "0:"
    INDEX 01 16:32:21
  TRACK 776 AUDIO
    TITLE "31:cjc024_8038"
    INDEX 01 16:32:45
  TRACK 777 AUDIO
    TITLE "0:"
    INDEX 01 16:34:32
  TRACK 778 AUDIO
    TITLE "28:cjc024_8039"
    INDEX 01 16:35:27
  TRACK 779 AUDIO
    TITLE "0:"
    INDEX 01 16:36:62
  TRACK 780 AUDIO
    TITLE "29:cjc024_8040"
    INDEX 01 16:37:24
  TRACK 781 AUDIO
    TITLE "0:"
    INDEX 01 16:39:07
  TRACK 782 AUDIO
    TITLE "30:cjc024_8041"
    INDEX 01 16:39:47
  TRACK 783 AUDIO
    TITLE "0:"
    INDEX 01 16:41:18
  TRACK 784 AUDIO
    TITLE "31:cjc024_8042"
    INDEX 01 16:41:44
  TRACK 785 AUDIO
    TITLE "0:"
    INDEX 01 16:43:15
  TRACK 786 AUDIO
    TITLE "28:cjc024_8043"
    INDEX 01 16:44:14
  TRACK 787 AUDIO
    TITLE "0:"
    INDEX 01 16:45:33
  TRACK 788 AUDIO
    TITLE "29:cjc024_8044"
    INDEX 01 16:46:00
  TRACK 789 AUDIO
    TITLE "0:"
    INDEX 01 16:48:14
  TRACK 790 AUDIO
    TITLE "30:cjc024_8045"
    INDEX 01 16:48:53
  TRACK 791 AUDIO
    TITLE "0:"
    INDEX 01 16:50:70
  TRACK 792 AUDIO
    TITLE "31:cjc024_8046"
    INDEX 01 16:51:18
  TRACK 793 AUDIO
    TITLE "0:"
    INDEX 01 16:53:35
  TRACK 794 AUDIO
    TITLE "28:cjc024_8047"
    INDEX 01 16:54:32
  TRACK 795 AUDIO
    TITLE "0:"
    INDEX 01 16:55:61
  TRACK 796 AUDIO
    TITLE "29:cjc024_8048"
    INDEX 01 16:56:24
  TRACK 797 AUDIO
    TITLE "0:"
    INDEX 01 16:59:39
  TRACK 798 AUDIO
    TITLE "30:cjc024_8049"
    INDEX 01 17:00:06
  TRACK 799 AUDIO
    TITLE "0:"
    INDEX 01 17:02:71
  TRACK 800 AUDIO
    TITLE "31:cjc024_8050"
    INDEX 01 17:03:22
  TRACK 801 AUDIO
    TITLE "0:"
    INDEX 01 17:06:14
